PathFileType	4	(X/Y/Z)	/Users/itak/Documents/Research/Walk-IL/dataset/trc/00472_00167.trc
DataRate	CameraRate	NumFrames	NumMarkers	Units	OrigDataRate	OrigDataStartFrame	OrigNumFrames
100.000000	100.000000	4	53	mm	100.000000	0	598
Frame#	Time	RPSI			LPSI			L3			STRN			T10			C7			CLAV			RBAK			LBAK			LSHO			LUPA			LAEL			LAOL			LWTS			LWPS			LFRA			LIFD			LHPS			LHTS			RSHO			RUPA			RAEL			RAOL			RWTS			RWPS			RFRA			RIFD			RHTS			RHPS			RBHD			LFHD			RFHD			LBHD			LHIP			RHIP			RASI			LASI			LKNE			LTHI			LANK			LTIP			LTOE			LMT1			LMT5			LHEE			RKNE			RTHI			RANK			RTIP			RTOE			RMT1			RMT5			RHEE			
		X1	Y1	Z1	X2	Y2	Z2	X3	Y3	Z3	X4	Y4	Z4	X5	Y5	Z5	X6	Y6	Z6	X7	Y7	Z7	X8	Y8	Z8	X9	Y9	Z9	X10	Y10	Z10	X11	Y11	Z11	X12	Y12	Z12	X13	Y13	Z13	X14	Y14	Z14	X15	Y15	Z15	X16	Y16	Z16	X17	Y17	Z17	X18	Y18	Z18	X19	Y19	Z19	X20	Y20	Z20	X21	Y21	Z21	X22	Y22	Z22	X23	Y23	Z23	X24	Y24	Z24	X25	Y25	Z25	X26	Y26	Z26	X27	Y27	Z27	X28	Y28	Z28	X29	Y29	Z29	X30	Y30	Z30	X31	Y31	Z31	X32	Y32	Z32	X33	Y33	Z33	X34	Y34	Z34	X35	Y35	Z35	X36	Y36	Z36	X37	Y37	Z37	X38	Y38	Z38	X39	Y39	Z39	X40	Y40	Z40	X41	Y41	Z41	X42	Y42	Z42	X43	Y43	Z43	X44	Y44	Z44	X45	Y45	Z45	X46	Y46	Z46	X47	Y47	Z47	X48	Y48	Z48	X49	Y49	Z49	X50	Y50	Z50	X51	Y51	Z51	X52	Y52	Z52	X53	Y53	Z53	

1	0	-1345.9970703125	966.646484375	-436.5951232910156	-1322.797241210938	960.8695068359375	-575.1245727539062	-1324.901611328125	1052.488159179688	-491.6861572265625	-1063.325805664062	1255.623413085938	-474.0286865234375	-1346.0966796875	1176.3857421875	-497.7090454101562	-1288.471923828125	1446.4072265625	-481.7974243164062	-1102.84228515625	1366.911010742188	-482.5814208984375	-1355.916870117188	1326.098999023438	-391.3971862792969	-1314.4013671875	1396.9326171875	-582.7684326171875	-1207.599243164062	1420.727416992188	-655.0023193359375	-1207.482666015625	1301.29150390625	-753.300048828125	-1174.127563476562	1085.1328125	-781.0630493164062	-1257.8798828125	1070.630859375	-722.4328002929688	-1090.279907226562	888.9953002929688	-729.8810424804688	-1134.228149414062	869.7825927734375	-788.3729248046875	-1149.3193359375	998.057861328125	-787.7597045898438	-1059.8056640625	736.9241333007812	-750.7399291992188	-1118.20361328125	796.3644409179688	-791.441650390625	-1068.937744140625	807.216064453125	-744.83984375	-1230.180419921875	1417.02294921875	-316.8433227539062	-1251.771362304688	1357.474853515625	-241.6473999023438	-1241.569580078125	1071.792724609375	-179.2360687255859	-1290.897583007812	1053.119384765625	-221.8737182617188	-1132.51220703125	868.6033935546875	-218.0979766845703	-1199.829467773438	854.0521240234375	-161.8147583007812	-1236.5712890625	1013.690185546875	-168.4085083007812	-1122.000366210938	714.6002197265625	-196.0791778564453	-1112.44873046875	774.0765991210938	-200.7598571777344	-1179.42822265625	769.8230590820312	-158.6505737304688	-1184.797485351562	1648.129760742188	-386.4821472167969	-1048.7451171875	1646.916137695312	-542.5123901367188	-1048.3310546875	1645.973754882812	-411.8252258300781	-1199.880859375	1655.8349609375	-563.2255859375	-1173.884887695312	862.2303466796875	-674.5068969726562	-1255.974853515625	863.427001953125	-285.1087646484375	-1137.14697265625	903.0570068359375	-324.9883422851562	-1085.8310546875	897.2063598632812	-580.1357421875	-1205.714965820312	446.0276489257812	-642.0039672851562	-1166.22265625	595.7679443359375	-657.8665771484375	-1293.255004882812	42.6298828125	-647.1729125976562	-1219.569946289062	300.0112915039062	-658.3887329101562	-1069.114624023438	43.20719146728516	-556.0726318359375	-1146.150146484375	51.12063598632812	-534.922607421875	-1140.23876953125	44.44285202026367	-649.44140625	-1343.873657226562	47.79268646240234	-588.5235595703125	-1244.2626953125	472.5523681640625	-299.60302734375	-1218.4384765625	731.64599609375	-263.1434936523438	-1309.614501953125	44.85781097412109	-293.9496154785156	-1250.195068359375	329.2066955566406	-286.9458618164062	-1090.96630859375	47.5499267578125	-323.1513061523438	-1151.3837890625	52.49643707275391	-363.8514404296875	-1178.29931640625	47.64011001586914	-258.1964721679688	-1370.462158203125	38.59515380859375	-345.8026428222656	
2	0.01	-1345.847778320312	966.6342163085938	-436.5249938964844	-1322.675170898438	960.8630981445312	-575.0769653320312	-1324.746948242188	1052.49169921875	-491.581298828125	-1063.299438476562	1255.587646484375	-474.0192565917969	-1345.936767578125	1176.380737304688	-497.6157836914062	-1288.34130859375	1446.387084960938	-481.6415405273438	-1102.770141601562	1366.8828125	-482.5654296875	-1355.773559570312	1326.074096679688	-391.2619018554688	-1314.303833007812	1396.904907226562	-582.6754150390625	-1207.505493164062	1420.72412109375	-654.8980102539062	-1207.447875976562	1301.248413085938	-753.207275390625	-1174.235595703125	1085.116943359375	-781.038818359375	-1257.982299804688	1070.649291992188	-722.3416748046875	-1090.704833984375	888.8560180664062	-730.20361328125	-1134.63818359375	869.7637329101562	-788.602294921875	-1149.581787109375	998.0426025390625	-787.865478515625	-1061.165161132812	736.3665161132812	-750.6257934570312	-1118.810546875	796.3062744140625	-791.7366333007812	-1069.455078125	807.0811157226562	-745.1516723632812	-1230.014404296875	1416.979370117188	-316.7145385742188	-1251.609985351562	1357.427124023438	-241.5460052490234	-1241.401489257812	1071.736206054688	-179.1786499023438	-1290.726684570312	1053.05322265625	-221.8423004150391	-1132.325927734375	868.5576171875	-218.1947021484375	-1199.67041015625	853.9488525390625	-161.8238220214844	-1236.4072265625	1013.592224121094	-168.3662567138672	-1121.911743164062	714.5075073242188	-196.3563385009766	-1112.33349609375	773.9826049804688	-200.8915405273438	-1179.23193359375	769.701416015625	-158.84619140625	-1184.69775390625	1648.146362304688	-386.4169616699219	-1048.581909179688	1646.888061523438	-542.400634765625	-1048.239379882812	1645.9365234375	-411.7444763183594	-1199.762817382812	1655.856811523438	-563.1190185546875	-1173.821533203125	862.2262573242188	-674.4907836914062	-1255.771362304688	863.4110107421875	-285.0353698730469	-1137.090576171875	902.9799194335938	-325.0086364746094	-1085.76318359375	897.1542358398438	-580.144287109375	-1205.680419921875	446.0457458496094	-642.01025390625	-1166.141845703125	595.7460327148438	-657.88671875	-1293.274658203125	42.61800003051758	-647.18310546875	-1219.543090820312	300.0150451660156	-658.396728515625	-1069.128540039062	43.21379470825195	-556.0809326171875	-1146.1533203125	51.12317657470703	-534.9144897460938	-1140.2001953125	44.39493942260742	-649.44482421875	-1343.875732421875	47.78298568725586	-588.5491333007812	-1244.143676757812	472.5370178222656	-299.6107788085938	-1218.272094726562	731.5881958007812	-263.1268615722656	-1309.620727539062	44.87839126586914	-293.9674377441406	-1250.082397460938	329.1757507324219	-286.9671325683594	-1090.959594726562	47.54417419433594	-323.1620178222656	-1151.3857421875	52.48715972900391	-363.8595886230469	-1178.2802734375	47.66089630126953	-258.2025451660156	-1370.473754882812	38.61261749267578	-345.7989501953125	
3	0.02	-1345.659790039062	966.6158447265625	-436.43896484375	-1322.51611328125	960.8536376953125	-575.0233764648438	-1324.556030273438	1052.4912109375	-491.4599609375	-1063.2255859375	1255.548583984375	-473.9950561523438	-1345.732543945312	1176.373901367188	-497.4881286621094	-1288.172119140625	1446.363525390625	-481.4516906738281	-1102.672241210938	1366.842041015625	-482.5332946777344	-1355.59228515625	1326.041870117188	-391.0921630859375	-1314.182983398438	1396.869140625	-582.5501098632812	-1207.401123046875	1420.714965820312	-654.7696533203125	-1207.417602539062	1301.196411132812	-753.0863037109375	-1174.376708984375	1085.09326171875	-780.9969482421875	-1258.112548828125	1070.673461914062	-722.2117309570312	-1091.21728515625	888.6785888671875	-730.572265625	-1135.168701171875	869.729248046875	-788.87890625	-1149.933471679688	998.0142211914062	-787.990234375	-1062.913818359375	735.6533203125	-750.4744262695312	-1119.558959960938	796.2156982421875	-792.092529296875	-1070.0615234375	806.9081420898438	-745.5003662109375	-1229.801635742188	1416.926879882812	-316.55419921875	-1251.401123046875	1357.365600585938	-241.4156036376953	-1241.196655273438	1071.661499023438	-179.1058502197266	-1290.514282226562	1052.974243164062	-221.8058929443359	-1132.102416992188	868.4921875	-218.3248138427734	-1199.47314453125	853.8165283203125	-161.8472747802734	-1236.203979492188	1013.468994140625	-168.3177337646484	-1121.812255859375	714.3817749023438	-196.6958312988281	-1112.192626953125	773.8645629882812	-201.0680541992188	-1179.0068359375	769.551025390625	-159.0849151611328	-1184.5712890625	1648.1650390625	-386.3303833007812	-1048.3681640625	1646.849609375	-542.2509155273438	-1048.115112304688	1645.887451171875	-411.6398620605469	-1199.611572265625	1655.878295898438	-562.9797973632812	-1173.731323242188	862.2174072265625	-674.470947265625	-1255.525756835938	863.388916015625	-284.9462585449219	-1136.99560546875	902.88720703125	-325.031005859375	-1085.695678710938	897.08544921875	-580.1541748046875	-1205.621459960938	446.0609130859375	-642.0159301757812	-1166.0341796875	595.7176513671875	-657.9150390625	-1293.295166015625	42.60429763793945	-647.1971435546875	-1219.496948242188	300.0207824707031	-658.4063110351562	-1069.148681640625	43.22443008422852	-556.0921020507812	-1146.159423828125	51.12815856933594	-534.9051513671875	-1140.161865234375	44.3446159362793	-649.4456176757812	-1343.88134765625	47.75909805297852	-588.5787353515625	-1243.98095703125	472.5122680664062	-299.62744140625	-1218.063842773438	731.5140991210938	-263.1067199707031	-1309.625610351562	44.90336990356445	-293.9907531738281	-1249.940185546875	329.136474609375	-286.9921875	-1090.9501953125	47.53952026367188	-323.1761169433594	-1151.387817382812	52.47565841674805	-363.8708190917969	-1178.256958007812	47.68681716918945	-258.2177124023438	-1370.489379882812	38.637939453125	-345.7951049804688	
4	0.03	-1345.441040039062	966.5899658203125	-436.3410034179688	-1322.32373046875	960.8403930664062	-574.9679565429688	-1324.3388671875	1052.484619140625	-491.3291320800781	-1063.094482421875	1255.5087890625	-473.951904296875	-1345.489990234375	1176.365356445312	-497.3247375488281	-1287.969116210938	1446.338500976562	-481.2390747070312	-1102.546020507812	1366.788818359375	-482.4794616699219	-1355.379272460938	1326.003662109375	-390.8952026367188	-1314.043090820312	1396.827026367188	-582.393310546875	-1207.295654296875	1420.6982421875	-654.623779296875	-1207.400024414062	1301.139282226562	-752.9404907226562	-1174.54833984375	1085.060791015625	-780.9341430664062	-1258.2646484375	1070.703002929688	-722.0418701171875	-1091.783203125	888.467041015625	-730.9519653320312	-1135.800659179688	869.6748046875	-789.1812744140625	-1150.3671875	997.9688110351562	-788.1214599609375	-1064.939331054688	734.8350830078125	-750.3214111328125	-1120.41455078125	796.0885620117188	-792.483642578125	-1070.719360351562	806.7031860351562	-745.8585815429688	-1229.549438476562	1416.86865234375	-316.3697509765625	-1251.149780273438	1357.291870117188	-241.2598266601562	-1240.965942382812	1071.570190429688	-179.0209045410156	-1290.270263671875	1052.886352539062	-221.7677764892578	-1131.858764648438	868.404052734375	-218.4833068847656	-1199.248046875	853.6598510742188	-161.8887329101562	-1235.970947265625	1013.325500488281	-168.2669982910156	-1121.710571289062	714.2254028320312	-197.0795440673828	-1112.034423828125	773.7254638671875	-201.2863616943359	-1178.772827148438	769.3787231445312	-159.3494415283203	-1184.415161132812	1648.180786132812	-386.2190551757812	-1048.110717773438	1646.801147460938	-542.066162109375	-1047.956298828125	1645.827514648438	-411.5118713378906	-1199.428955078125	1655.89501953125	-562.8106079101562	-1173.612182617188	862.2029418945312	-674.4484252929688	-1255.252807617188	863.3607177734375	-284.8453063964844	-1136.859985351562	902.7854614257812	-325.0532531738281	-1085.63671875	897.0025634765625	-580.1651000976562	-1205.5322265625	446.0688171386719	-642.0206298828125	-1165.900756835938	595.6831665039062	-657.9520263671875	-1293.314819335938	42.58841323852539	-647.2149658203125	-1219.4267578125	300.0279235839844	-658.417236328125	-1069.175903320312	43.23964309692383	-556.105712890625	-1146.1689453125	51.13608932495117	-534.895263671875	-1140.13037109375	44.30007934570312	-649.4423828125	-1343.89111328125	47.71985626220703	-588.6158447265625	-1243.776977539062	472.4784545898438	-299.6533508300781	-1217.82177734375	731.4277954101562	-263.0833129882812	-1309.628051757812	44.93054962158203	-294.0181274414062	-1249.774536132812	329.0906372070312	-287.0169677734375	-1090.938354492188	47.53644561767578	-323.1929931640625	-1151.39013671875	52.4620361328125	-363.8850708007812	-1178.231323242188	47.71636199951172	-258.2451782226562	-1370.5078125	38.67070770263672	-345.7922973632812	
